<?xml version="1.0" encoding="UTF-8" standalone="no"?>
<svg
   version="1.1"
   width="1450"
   height="390"
   viewBox="100 20 1450 390"
   id="svg50"
   sodipodi:docname="nexora_logo(2).svg"
   inkscape:version="1.4.3 (0d15f75, 2025-12-25)"
   inkscape:export-filename="logo3.png"
   inkscape:export-xdpi="96"
   inkscape:export-ydpi="96"
   xmlns:inkscape="http://www.inkscape.org/namespaces/inkscape"
   xmlns:sodipodi="http://sodipodi.sourceforge.net/DTD/sodipodi-0.dtd"
   xmlns="http://www.w3.org/2000/svg"
   xmlns:svg="http://www.w3.org/2000/svg">
  <defs
     id="defs50" />
  <sodipodi:namedview
     id="namedview50"
     pagecolor="#ffffff"
     bordercolor="#000000"
     borderopacity="0.25"
     inkscape:showpageshadow="2"
     inkscape:pageopacity="0.0"
     inkscape:pagecheckerboard="0"
     inkscape:deskcolor="#d1d1d1"
     showgrid="false"
     inkscape:zoom="0.66029144"
     inkscape:cx="630.02483"
     inkscape:cy="120.40138"
     inkscape:window-width="1920"
     inkscape:window-height="1001"
     inkscape:window-x="-9"
     inkscape:window-y="-9"
     inkscape:window-maximized="1"
     inkscape:current-layer="svg50">
    <inkscape:page
       x="0"
       y="0"
       width="1450"
       height="390"
       id="page2"
       margin="0"
       bleed="0" />
  </sodipodi:namedview>
  <g
     id="g50"
     transform="translate(38,6)"
     style="fill:#f0a951;fill-opacity:1">
    <path
       d="m 405,48 c 0,4.08876 -1.57636,5.320342 -4.125,8.5 -0.9264,1.172966 -1.85076,2.347543 -2.77344,3.523437 -0.50112,0.637764 -1.00224,1.275528 -1.51855,1.932618 -2.84483,3.673175 -5.58534,7.42286 -8.33301,11.168945 -0.59112,0.804214 -1.18223,1.608428 -1.79126,2.437012 -2.41641,3.288867 -4.82983,6.579923 -7.24243,9.871582 -7.71171,10.518096 -15.51991,20.949376 -23.46973,31.288576 -2.55795,3.33599 -5.1,6.68402 -7.64355,10.031 -44.65625,58.74557 -44.65625,58.74557 -61.04444,72.44214 -2.64149,2.31569 -5.09493,4.80372 -7.55859,7.30469 -3.7326,3.78432 -7.56216,7.37382 -11.60547,10.82422 -2.76113,2.44232 -5.30922,5.08132 -7.89453,7.70703 -2.56305,2.523 -5.27346,4.84438 -8,7.1875 -2.08337,1.8555 -4.04281,3.79348 -6,5.78125 -2.44663,2.47963 -4.92108,4.8544 -7.5625,7.125 -4.09408,3.52546 -8.04931,7.19078 -12,10.875 -0.62528,0.58153 -1.25055,1.16306 -1.89478,1.76221 -3.14256,2.93746 -6.23441,5.91162 -9.26538,8.96435 -2.30701,2.32289 -4.64382,4.54128 -7.15234,6.64844 -3.74734,3.22647 -7.21401,6.6706 -10.65625,10.21875 -2.69339,2.6252 -5.50552,5.07212 -8.34521,7.53662 -3.47508,3.05957 -6.82679,6.24657 -10.18604,9.43213 -1.49845,1.41562 -2.99715,2.83098 -4.49609,4.24609 -1.11738,1.0555 -1.11738,1.0555 -2.25733,2.13233 -5.08601,4.79493 -10.20558,9.55403 -15.31933,14.31933 -1.92969,1.80033 -3.85652,3.60367 -5.78272,5.40772 -5.46582,5.11624 -10.93057,10.22483 -16.51953,15.20703 -3.6871,3.29097 -7.18244,6.72095 -10.64844,10.24219 -1.82822,1.79838 -3.7124,3.47028 -5.66406,5.13281 -5.73102,4.91721 -10.95403,10.37459 -16.25,15.75 0,-3.68453 0.68964,-4.08557 3.18359,-6.66016 0.6762,-0.70648 1.35239,-1.41297 2.04908,-2.14087 0.72759,-0.74628 1.45519,-1.49257 2.20483,-2.26147 1.47732,-1.54094 2.95389,-3.0826 4.42969,-4.625 0.7151,-0.74379 1.43021,-1.48758 2.16699,-2.25391 4.91649,-5.14851 9.61318,-10.49507 14.27832,-15.87109 3.66989,-4.21738 7.47736,-8.30364 11.27783,-12.40283 3.30308,-3.56874 6.5439,-7.18108 9.72998,-10.85498 6.31614,-7.25621 12.86765,-14.29194 19.43994,-21.31494 6.26324,-6.69765 12.49811,-13.42158 18.48975,-20.36475 4.57024,-5.25847 9.3744,-10.30306 14.13672,-15.38672 3.22106,-3.43926 6.42156,-6.8968 9.61328,-10.36328 18.81326,-20.40315 18.81326,-20.40315 27.06641,-28.53516 1.85615,-1.88614 3.58916,-3.82912 5.30859,-5.83984 2.88715,-3.37058 5.96748,-6.51003 9.125,-9.625 3.07405,-3.03284 6.07999,-6.07939 8.875,-9.375 3.67259,-4.3113 7.69568,-8.25138 11.74365,-12.20654 2.891,-2.84512 5.63986,-5.75069 8.2876,-8.82471 4.2872,-4.96138 8.9546,-9.50516 13.63281,-14.09375 3.93098,-3.88544 7.63952,-7.87527 11.2461,-12.0625 3.30275,-3.73159 6.90345,-7.16654 10.46484,-10.64844 3.02185,-2.98137 5.91645,-6.00938 8.6875,-9.22656 4.27494,-4.95244 8.93392,-9.48428 13.60156,-14.0625 3.19512,-3.15811 6.29414,-6.33176 9.21094,-9.75 5.41569,-6.287609 11.45093,-12.005949 17.35254,-17.832031 5.38317,-5.320459 10.68843,-10.636372 15.60498,-16.398438 3.87379,-4.364474 8.08581,-8.414147 12.22998,-12.519531 0.92232,-0.917812 1.84465,-1.835625 2.79492,-2.78125 C 400.486,52.476849 402.74189,50.237334 405,48 Z"
       fill="#2563eb"
       id="path1"
       style="fill:#f0a951;fill-opacity:1" />
    <path
       d="m 278,132 c -0.29133,0.78311 -0.58266,1.56621 -0.88281,2.37305 -1.12325,3.02535 -2.2434,6.05182 -3.36096,9.07928 -0.50372,1.36393 -1.00819,2.72758 -1.51343,4.09094 -2.63931,7.1302 -5.2255,14.25722 -7.50843,21.51142 -0.50853,1.60778 -0.50853,1.60778 -1.02734,3.24804 -0.61929,1.98806 -1.22201,3.98138 -1.80469,5.98047 C 259.8419,184.88319 256.89799,189.16155 252,194 c -3.59931,3.59544 -7.1923,7.19718 -10.78418,10.80005 -5.62129,5.63755 -11.24506,11.27262 -16.8703,16.90624 -3.39855,3.4038 -6.79616,6.80854 -10.19171,10.21534 -3.29091,3.30173 -6.58423,6.60106 -9.87925,9.89869 -1.25605,1.2579 -2.51121,2.51668 -3.76549,3.77634 -1.74519,1.7524 -3.49344,3.5017 -5.24247,5.25026 -0.52154,0.52514 -1.04308,1.05028 -1.58043,1.59133 C 190.11405,256 190.11405,256 189,256 c -4.62411,-27.6701 0.46921,-61.22929 16.39062,-84.64844 15.07446,-20.92111 39.15763,-33.99796 64.1875,-39.03491 2.82665,-0.36957 5.5744,-0.36834 8.42188,-0.31665 z"
       fill="#2563eb"
       id="path2"
       style="fill:#f0a951;fill-opacity:1" />
    <path
       d="m 269,51 c 7.8364,6.9583 13.34856,15.957276 14.20312,26.507812 C 283.38849,87.857616 281.22448,96.641918 275,105 c -0.60457,0.825 -1.20914,1.65 -1.83203,2.5 -6.03254,6.95644 -15.45469,11.9812 -24.60938,12.8125 -11.46101,0.37008 -20.54785,-1.74704 -29.42187,-9.20312 C 210.21069,102.29757 206.01005,93.512617 205.5625,81.0625 205.84733,69.656738 210.00743,61.182613 217.84766,53.09375 232.37198,39.46456 253.06804,40.010006 269,51 Z"
       fill="#2563eb"
       id="path3"
       style="fill:#f0a951;fill-opacity:1" />
    <path
       d="m 246,253 c -0.07,0.95415 -0.14002,1.9083 -0.21216,2.89136 -0.70989,10.14744 -0.9916,20.25016 -0.97534,30.42114 9.4e-4,0.76508 0.002,1.53016 0.003,2.31842 0.0718,27.14204 3.18887,56.52753 17.49326,80.34564 0.55816,0.99774 1.11632,1.99547 1.6914,3.02344 -0.33,0.66 -0.66,1.32 -1,2 -18.07155,-11.25335 -33.01918,-25.37552 -45,-43 -0.71801,-1.02223 -1.43602,-2.04445 -2.17578,-3.09766 -4.69967,-6.85253 -8.51547,-13.99031 -12.01172,-21.52734 -0.41113,-0.86553 -0.82226,-1.73105 -1.24585,-2.6228 -0.36617,-0.81799 -0.73235,-1.63598 -1.10962,-2.47876 -0.33024,-0.72784 -0.66048,-1.45568 -1.00073,-2.20557 C 200,297 200,297 200.71533,294.92725 c 1.3145,-1.972 2.63703,-3.43688 4.38233,-5.03663 0.62825,-0.58185 1.25651,-1.1637 1.9038,-1.76318 0.68015,-0.61955 1.36029,-1.23911 2.06104,-1.87744 1.45216,-1.34078 2.90397,-2.68194 4.35547,-4.02344 0.75329,-0.69319 1.50659,-1.38638 2.28271,-2.10058 3.0196,-2.79196 6.00841,-5.61565 8.99634,-8.44141 C 244.4558,253 244.4558,253 246,253 Z"
       fill="#2563eb"
       id="path4"
       style="fill:#f0a951;fill-opacity:1" />
  </g>
  <text
     x="1079.7632"
     y="238.15909"
     text-anchor="middle"
     dominant-baseline="middle"
     font-family="'Arial Black', Arial, sans-serif"
     font-weight="400"
     font-size="248.775px"
     fill="#2563eb"
     letter-spacing="8"
     id="text50"
     transform="scale(0.8906024,1.1228355)"
     style="fill:#f0a951;fill-opacity:1;stroke-width:1.13079">NEXORA</text>
</svg>
